<?xml version="1.0" standalone="no"?>
<!DOCTYPE svg PUBLIC "-//W3C//DTD SVG 20010904//EN"
 "http://www.w3.org/TR/2001/REC-SVG-20010904/DTD/svg10.dtd">
<svg version="1.0" xmlns="http://www.w3.org/2000/svg"
 width="350.000000pt" height="350.000000pt" viewBox="0 0 350.000000 350.000000"
 preserveAspectRatio="xMidYMid meet">

<g transform="translate(0.000000,350.000000) scale(0.100000,-0.100000)"
fill="#000000" stroke="none">
<path d="M1520 3281 c0 -3 25 -19 56 -35 151 -79 228 -211 179 -306 -20 -38
-60 -61 -195 -110 -133 -49 -203 -91 -248 -148 -52 -65 -75 -128 -80 -217 l-4
-80 45 76 c56 93 135 181 194 216 24 14 46 24 48 21 9 -8 -52 -167 -85 -222
-43 -71 -133 -172 -171 -191 -44 -23 -92 -19 -119 10 -19 20 -24 40 -32 126
-13 155 -44 193 -155 187 l-58 -3 29 -15 c17 -8 39 -31 50 -50 19 -32 21 -52
22 -235 0 -221 7 -256 64 -345 30 -46 83 -100 98 -100 4 0 17 33 30 74 42 133
154 268 275 331 l55 29 4 80 c9 162 102 290 277 380 162 84 208 145 181 242
-27 95 -175 217 -321 263 -48 15 -139 30 -139 22z"/>
<path d="M2058 2888 c10 -69 -39 -116 -218 -209 -135 -69 -234 -163 -268 -252
-28 -74 -30 -121 -4 -113 97 30 235 34 327 11 33 -8 94 -32 136 -54 l76 -39
73 37 c71 35 78 36 179 36 125 -1 162 -13 308 -101 80 -49 104 -58 153 -62 69
-5 116 18 149 71 69 112 71 362 4 492 l-18 34 -1 -102 c-1 -123 -26 -199 -79
-246 -76 -67 -142 -51 -285 69 -52 44 -118 92 -146 105 -107 54 -224 51 -343
-7 l-66 -32 120 -6 c125 -7 184 -19 247 -51 52 -26 54 -37 11 -48 -181 -49
-423 -20 -483 57 -24 30 -26 70 -4 100 8 12 49 45 90 72 84 57 106 85 106 133
0 35 -30 105 -55 125 -11 10 -13 6 -9 -20z"/>
<path d="M643 2555 c-125 -34 -269 -135 -329 -230 l-19 -30 25 16 c104 66 191
99 259 99 47 0 119 -36 135 -69 25 -49 26 -86 6 -201 -39 -227 -20 -326 84
-438 31 -33 124 -98 130 -91 2 2 -16 37 -40 78 -24 41 -53 102 -64 135 -25 74
-37 171 -22 180 6 3 29 -15 53 -41 98 -111 168 -252 176 -360 5 -59 4 -63 -25
-92 -17 -17 -41 -31 -54 -31 -13 0 -60 17 -104 39 -45 21 -95 42 -112 46 -58
12 -121 -36 -151 -118 l-11 -29 25 21 c62 48 119 34 288 -72 131 -82 192 -107
282 -114 66 -5 185 16 185 33 0 3 -22 31 -50 61 -96 109 -151 249 -151 391 l0
77 -51 30 c-86 51 -154 141 -191 250 -5 17 -12 107 -16 202 -7 196 -12 210
-91 251 -50 25 -92 27 -167 7z"/>
<path d="M1717 2272 l-27 -28 65 -64 65 -64 -27 -28 c-15 -15 -32 -28 -37 -28
-6 0 -38 27 -71 60 l-60 60 -92 -92 -93 -92 32 -33 32 -33 63 62 63 63 32 -33
33 -32 -63 -63 -62 -63 60 -59 60 -59 -30 -31 -30 -30 -125 125 -125 125 -90
-90 c-49 -49 -90 -94 -90 -100 0 -12 44 -55 56 -55 5 0 34 26 66 57 l58 57 32
-32 32 -32 -57 -58 c-31 -32 -57 -62 -57 -68 0 -12 162 -174 175 -174 12 0 55
44 55 56 0 5 -25 34 -55 64 l-55 56 30 29 31 29 57 -57 57 -57 62 62 63 62 25
-24 c14 -13 25 -28 25 -34 0 -6 -54 -65 -120 -131 l-120 -120 92 -92 92 -93
28 27 c15 15 28 31 28 37 0 6 -26 36 -57 68 l-57 58 29 30 29 30 63 -62 63
-63 92 93 93 92 -31 31 -31 30 -61 -63 -61 -63 -30 35 -30 35 60 60 59 61 -55
54 c-30 30 -55 60 -55 66 0 12 42 54 56 54 5 0 63 -54 129 -120 l120 -120 93
93 92 93 -30 29 -30 29 -58 -57 c-32 -31 -62 -57 -68 -57 -6 0 -23 14 -39 30
l-29 30 62 63 62 62 -90 90 -90 89 -30 -29 -30 -29 55 -56 c30 -30 55 -60 55
-66 0 -13 -43 -54 -56 -54 -5 0 -34 25 -64 55 l-54 55 -63 -62 -63 -62 -25 24
c-14 13 -24 27 -23 31 2 4 56 62 122 129 l119 122 -94 94 c-51 52 -96 94 -99
94 -4 0 -18 -13 -33 -28z"/>
<path d="M2235 2240 c-22 -5 -52 -13 -68 -19 l-27 -11 60 -72 c101 -119 149
-250 150 -399 0 -65 0 -65 35 -82 48 -23 121 -92 151 -142 54 -92 66 -149 67
-315 2 -174 11 -204 77 -247 44 -30 133 -31 219 -2 107 36 260 152 300 228 11
19 6 18 -40 -10 -162 -100 -315 -106 -370 -15 -25 40 -24 95 2 243 23 133 20
192 -13 280 -25 67 -108 157 -177 193 l-44 22 20 -29 c33 -46 90 -164 107
-222 9 -30 16 -80 16 -110 l-1 -56 -60 65 c-99 108 -191 313 -174 390 4 16 15
41 26 55 30 37 78 33 178 -15 124 -60 180 -50 226 40 31 62 31 66 -1 41 -53
-42 -113 -26 -261 66 -125 78 -193 110 -263 123 -59 11 -78 11 -135 0z"/>
<path d="M2330 1592 c-34 -136 -146 -283 -274 -359 l-68 -41 -4 -62 c-12 -173
-100 -289 -303 -399 -132 -72 -165 -109 -165 -185 0 -43 6 -62 33 -105 59 -92
219 -192 349 -220 92 -19 102 -13 37 22 -83 45 -170 128 -191 182 -31 81 -5
153 69 191 15 8 67 29 115 45 130 46 192 81 245 138 59 63 83 114 97 209 17
108 10 115 -34 39 -56 -95 -123 -175 -180 -214 -74 -51 -80 -46 -47 46 39 111
85 185 166 267 74 74 112 92 159 74 41 -15 54 -48 64 -163 8 -98 12 -111 37
-137 31 -32 94 -48 142 -35 26 7 26 8 8 15 -34 13 -63 53 -74 100 -6 27 -8
105 -4 195 4 107 2 167 -7 205 -21 91 -74 180 -130 220 l-28 20 -12 -48z"/>
<path d="M595 1351 c-41 -25 -61 -49 -85 -103 -46 -104 -45 -294 3 -416 l22
-57 6 100 c11 159 51 239 134 270 42 17 48 17 88 1 24 -9 86 -52 138 -96 52
-44 123 -95 159 -113 60 -30 72 -32 165 -32 94 0 104 2 170 35 l70 34 -120 6
c-123 7 -201 25 -263 62 -17 11 -30 23 -27 28 9 15 141 34 230 34 148 -1 261
-37 290 -94 30 -59 15 -89 -78 -151 -87 -59 -116 -88 -123 -125 -6 -32 17 -97
49 -139 15 -19 16 -18 15 21 0 23 5 50 11 62 18 33 80 76 186 130 170 85 254
162 295 270 24 63 27 107 6 99 -46 -18 -147 -29 -219 -24 -99 6 -192 34 -270
81 l-57 35 -43 -24 c-147 -83 -321 -67 -492 43 -132 85 -199 101 -260 63z"/>
</g>
</svg>
